<?xml version="1.0" encoding="utf-8"?>
<!-- Generator: Adobe Illustrator 28.1.0, SVG Export Plug-In . SVG Version: 6.00 Build 0)  -->
<svg version="1.1" id="Слой_1" xmlns="http://www.w3.org/2000/svg" xmlns:xlink="http://www.w3.org/1999/xlink" x="0px" y="0px"
	 viewBox="0 0 295.5 295.5" style="enable-background:new 0 0 295.5 295.5;" xml:space="preserve">
<style type="text/css">
	.st0{fill:#1D1D1B;}
</style>
<g>
	<path d="M150.3,133.4c-4.9,3-9.2,6.8-13.4,10.7c-3.8,3.5-7.1,7.4-10.2,11.5c-0.4,0.5-0.6,1.3-1.4,1.2c-0.8-0.1-0.8-1-1-1.6
		c-4.4-11.7,0.5-22.2,10.4-29.1c5.4-3.8,11.6-5.7,18-6.7c5.7-0.9,11.4-1.5,17.2-1.2c1.7,0.1,2.7,0.4,2.7,2.5
		c0.3,8.5-0.3,16.8-2.8,25c-2,6.5-5.1,12.2-10.2,16.7c-7.3,6.3-15.6,7.5-24.5,4.1c-1.8-0.7-2.6-0.7-3.1,1.4
		c-0.5,2.3-1.5,4.5-2.3,6.8c-0.7,2-2.1,2.8-4.1,2.4c-1.9-0.4-2.7-1.7-2.6-3.7c0.1-2.1,1.1-3.8,1.9-5.6c3.4-7.6,7.9-14.5,13.3-21
		c3.9-4.7,8.2-8.7,12.5-12.9c0.7,0.1,0.7-0.7,1.1-0.9c0.2-0.2,0.5-0.6,0.5-0.7c-0.4-0.4-0.6,0-0.9,0.2
		C151,132.7,150.6,133.1,150.3,133.4z"/>
	<path d="M150.3,133.4c0.3-0.4,0.7-0.7,1.2-0.7c0.1,0.1,0.3,0.3,0.4,0.4c-0.4,0.3-0.4,1-1.1,0.9
		C150.7,133.8,150.5,133.6,150.3,133.4z"/>
	<path d="M151.5,132.7c0.3-0.3,0.5-0.6,0.9-0.2c0,0-0.3,0.4-0.5,0.7C151.8,133,151.7,132.8,151.5,132.7z"/>
</g>
</svg>
