<?xml version="1.0" encoding="utf-8"?>
<!-- Generator: Adobe Illustrator 28.1.0, SVG Export Plug-In . SVG Version: 6.00 Build 0)  -->
<svg version="1.1" id="Слой_1" xmlns="http://www.w3.org/2000/svg" xmlns:xlink="http://www.w3.org/1999/xlink" x="0px" y="0px"
	 viewBox="0 0 295.5 295.5" style="enable-background:new 0 0 295.5 295.5;" xml:space="preserve">
<style type="text/css">
	.st0{fill:#1D1D1B;}
</style>
<g>
	<path class="st0" d="M152.8,235.1c-24,0-48,0-72.1,0c-8.3,0-16.5-1-24.3-4.3c-17.2-7.3-28.6-19.9-34.1-37.8
		c-2.5-8.3-2.8-16.9-1.4-25.4c1.1-7.2,3.8-13.9,7.6-20.2c3.8-6.1,8.4-11.3,14.1-15.8c5.1-4,10.7-7,16.9-9c1.5-0.5,2.1-1.1,2.2-2.7
		c0.2-7.5,2.1-14.6,5.2-21.3c4.1-8.8,9.6-16.6,17.1-23c8.3-7.1,17.6-11.7,28-14.1c5.5-1.3,11.1-1.1,16.7-1.3
		c4.9-0.1,9.7,0.7,14.3,1.9c6.7,1.7,13,4.6,18.8,8.5c11.7,7.9,19.9,18.5,25.1,31.6c0.8,1.9,1.5,2,3.2,1.5c8-2.5,16-2.6,24.3-0.7
		c6.6,1.5,12.4,4.6,17.2,8.8c8.6,7.5,14.6,16.7,15.8,28.5c0.1,1-0.2,1.9,0,2.9c0.4,3,3.1,3.3,4.9,4.4c6.1,3.8,11,8.7,14.9,14.5
		c7.8,11.5,9.9,24.2,6.3,37.7c-5.1,19.2-21.5,33-41,34.9c-3.2,0.3-6.3,0.4-9.5,0.4C199.7,235.1,176.3,235.1,152.8,235.1z M125.7,70
		c-1.9-0.1-4.2,0.3-6.5,0.5c-9.9,1.1-18.7,4.9-26.5,11c-8.6,6.7-14.8,15.3-18.3,25.7c-1.8,5.2-3,10.6-2.9,16.2
		c0.1,5.4-0.7,6.4-5.9,7.8c-8.1,2.2-15.4,6.2-21.2,12.2c-9.8,10.1-14.8,22.1-14,36.4c0.4,7.9,2.7,15.1,6.5,21.8
		c5.1,8.9,12.5,15.4,22,19.4c6,2.5,12.1,4.1,18.7,4c49.4-0.1,98.7,0,148.1,0c3.3,0,6.7-0.2,10-0.9c10-2.1,17.9-7.6,23.5-16
		c4.8-7.3,6.7-15.4,5.7-24.2c-1.8-14.4-9.5-24.4-22.6-30.3c-3.7-1.7-4.4-2.6-4.4-6.8c0.1-6-1.1-11.7-4.1-17
		c-6.2-11.1-15.6-17.3-28.5-18c-6.6-0.3-12.6,1.1-18.4,4.1c-3.1,1.6-6,0.2-7.1-3c-0.3-0.9-0.6-1.7-0.8-2.6
		C172.9,87,151.4,70,125.7,70z"/>
	<path class="st0" d="M122.1,102.8c-5.9,3.3-10.8,7.8-15.6,12.4c-3.3,3.2-6.4,6.7-9.1,10.5c-1.2,1.7-1.9,1.6-2.5-0.3
		c-2.7-7.8-1.9-14.8,3.1-21.8c6.5-9.1,15.8-12.3,26-14.1c5.5-0.9,11.1-1.5,16.8-1.1c1.6,0.1,2.4,0.7,2.5,2.4
		c0.4,10.9-0.4,21.7-5.3,31.7c-3.5,7.2-8.8,12.8-16.8,15.1c-5.2,1.5-10.3,1.2-15.3-0.9c-1.8-0.8-2.6-0.4-3.2,1.4
		c-0.7,2.2-1.6,4.4-2.3,6.6c-0.7,2.1-2,3.1-4.1,2.6c-2.2-0.5-2.9-2-2.6-4.1c0.6-3.1,2.2-5.9,3.5-8.7c3.4-7,7.9-13.4,13-19.2
		c3.5-4,7.1-8,11.6-11.1c0.3-0.2,0.5-0.6,0.7-1c0.2-0.2,0.5-0.7,0.5-0.7C122.6,102.1,122.3,102.5,122.1,102.8z"/>
	<path class="st0" d="M202,158.7c-0.1,9.4-1.9,18.4-7.1,26.4c-4.7,7.2-11.1,12-20.1,12.3c-3.6,0.1-7.1-0.5-10.3-1.9
		c-1.3-0.6-2-0.5-2.5,1c-0.7,2.3-2.1,4.4-2.5,6.9c-0.4,2.3-2.3,3.4-4.4,2.8c-1.9-0.5-2.9-2.6-2.2-4.7c2.8-7.9,7-15.1,12.1-21.8
		c3.2-4.2,6.5-8.3,10.3-11.9c1.9-1.8,3.9-3.5,5.8-5.3c0.3,0,0.7,0,0.7-0.4c0-0.2-0.3-0.5-0.4-0.5c-0.3,0-0.5,0.2-0.7,0.4
		c-7,4.3-13.1,9.8-18.6,15.9c-1.9,2.1-3.9,4.3-5.5,6.7c-0.9,1.4-1.9,2-2.6-0.2c-2.8-8.4-1.8-16.1,4-23.1
		c6.5-7.8,15.1-11.1,24.9-12.5c5.6-0.8,11.2-1.5,16.8-1.3c1.4,0.1,2.5,0.2,2.3,2C202,152.5,202,155.6,202,158.7z"/>
	<path class="st0" d="M202,158.7c0-3.1,0-6.2,0-9.3C202.7,152.5,202.7,155.6,202,158.7z"/>
	<path class="st0" d="M122.1,102.8c0.3-0.3,0.5-0.7,0.9-0.3c0,0-0.3,0.5-0.5,0.7C122.3,103.1,122.2,103,122.1,102.8z"/>
	<path class="st0" d="M180.7,161.9c0.2-0.1,0.5-0.3,0.7-0.4c0.1,0,0.4,0.3,0.4,0.5c0,0.4-0.4,0.3-0.7,0.4
		C181,162.3,180.9,162.1,180.7,161.9z"/>
</g>
</svg>
