<?xml version="1.0" encoding="utf-8"?>
<!-- Generator: Adobe Illustrator 28.1.0, SVG Export Plug-In . SVG Version: 6.00 Build 0)  -->
<svg version="1.1" id="Слой_1" xmlns="http://www.w3.org/2000/svg" xmlns:xlink="http://www.w3.org/1999/xlink" x="0px" y="0px"
	 viewBox="0 0 295.5 295.5" style="enable-background:new 0 0 295.5 295.5;" xml:space="preserve">
<style type="text/css">
	.st0{fill:#1D1D1B;}
</style>
<g>
	<path class="st0" d="M84.6,65.8c-5.8,3.5-10.9,7.8-15.7,12.5c-3.3,3.3-6.3,6.8-9.1,10.5c-1,1.4-1.7,1.8-2.4-0.2
		c-2.8-7.9-2.1-15,3.1-22c6.9-9.4,16.6-12.5,27.2-14.2c5.1-0.8,10.3-1.2,15.5-0.9c1.3,0.1,2.3,0.3,2.4,1.9
		c0.6,12.6-0.4,24.9-7.3,35.8c-4.7,7.3-11.2,12.2-20.4,12.4c-3.3,0.1-6.6-0.4-9.6-1.8c-1.8-0.9-2.6-0.4-3.2,1.4
		c-0.7,2.2-1.6,4.4-2.3,6.6c-0.7,2.1-2,3.1-4.1,2.6c-2.2-0.5-2.9-2-2.6-4.1c0.6-3.2,2.2-6,3.6-8.9c3.4-7,7.9-13.4,13.1-19.2
		c3.5-3.9,7-7.9,11.4-10.9c0.3-0.2,0.5-0.6,0.7-1c0.2-0.2,0.5-0.6,0.5-0.6C85.1,65.2,84.8,65.5,84.6,65.8z"/>
	<path class="st0" d="M151.5,132.7c-5.5,3.1-10.1,7.2-14.7,11.5c-3.9,3.7-7.4,7.7-10.5,12c-0.7,1-1.2,1.2-1.8-0.2
		c-3.1-8.2-2.5-15.7,3-22.8c7.5-9.6,17.7-12.9,29.3-14c4.3-0.4,8.5-0.8,12.8-0.8c2,0,3,0.5,3,2.8c0.2,8.5-0.5,16.7-3,24.9
		c-2.3,7.6-6.1,13.8-12.5,18.3c-6.8,4.8-14.1,5.2-21.8,2.4c-1.7-0.6-2.8-1.3-3.5,1.2c-0.6,2-1.3,4.1-2.1,6.1c-1,2.9-2.4,3.9-4.7,3.1
		c-2-0.6-2.8-2.7-1.8-5.4c1.7-4.5,3.7-8.8,6.2-12.9c3.6-5.9,7.6-11.4,12.4-16.4c3.1-3.2,6.5-6.2,9.8-9.3c0.2-0.2,0.7-0.3,0.4-0.7
		C152,132.1,151.6,132.3,151.5,132.7z"/>
	<path class="st0" d="M239.7,196.1c-0.5,3.7-0.5,7.5-1.3,11.2c-1.9,9.1-5.4,17.3-13,23.2c-7.1,5.5-14.9,6.2-23.1,3
		c-1.9-0.7-2.6-0.4-3.1,1.4c-0.7,2.2-1.9,4.1-2.3,6.4c-0.4,2.3-2.3,3.4-4.4,2.8c-2-0.5-3-2.5-2.2-4.7c2.9-7.9,7-15.2,12.1-21.8
		c3.3-4.2,6.6-8.3,10.5-12.1c1.8-1.8,4.1-3.1,5.7-5.1c0.3,0,0.7,0,0.7-0.4c0-0.2-0.3-0.5-0.4-0.5c-0.3,0-0.5,0.2-0.7,0.4
		c-7.8,4.9-14.5,11.1-20.6,18c-1.2,1.4-2.3,3-3.5,4.4c-1.4,1.8-2,1.8-2.7-0.4c-2.5-7.3-2.1-14.3,2.5-20.8
		c6.4-9.1,15.6-13.1,26.4-14.6c5.6-0.8,11.2-1.5,16.9-1.3c1.7,0.1,2.9,0.5,2.7,2.5C239.1,190.5,239.2,193.3,239.7,196.1z"/>
	<path class="st0" d="M239.7,196.1c-0.5-2.8-0.6-5.6,0-8.4C239.7,190.5,239.7,193.3,239.7,196.1z"/>
	<path class="st0" d="M84.6,65.8c0.2-0.3,0.5-0.6,0.9-0.2c0,0-0.3,0.4-0.5,0.6C84.9,66,84.7,65.9,84.6,65.8z"/>
	<path class="st0" d="M151.5,132.7c0.2-0.3,0.5-0.5,0.8-0.3c0.3,0.4-0.2,0.5-0.4,0.7C151.7,132.9,151.6,132.8,151.5,132.7z"/>
	<path class="st0" d="M218.1,199.7c0.2-0.1,0.5-0.4,0.7-0.4c0.1,0,0.4,0.3,0.4,0.5c0,0.4-0.4,0.3-0.7,0.4
		C218.3,200.1,218.2,199.9,218.1,199.7z"/>
</g>
</svg>
