<?xml version="1.0" encoding="utf-8"?>
<!-- Generator: Adobe Illustrator 28.1.0, SVG Export Plug-In . SVG Version: 6.00 Build 0)  -->
<svg version="1.1" id="Слой_1" xmlns="http://www.w3.org/2000/svg" xmlns:xlink="http://www.w3.org/1999/xlink" x="0px" y="0px"
	 viewBox="0 0 295.5 295.5" style="enable-background:new 0 0 295.5 295.5;" xml:space="preserve">
<style type="text/css">
	.st0{fill:#1D1D1B;}
</style>
<g>
	<path class="st0" d="M84.6,199.5c-5.4,3.2-10.1,7.2-14.6,11.5c-3.8,3.5-7.1,7.4-10.1,11.5c-0.4,0.5-0.6,1.3-1.4,1.2
		c-0.9-0.1-0.7-1-0.9-1.6c-3.1-8-2-15.3,3.2-22.2c7.3-9.5,17.5-12.8,28.9-14c4.4-0.5,8.7-0.8,13.1-0.8c2.2,0,3.1,0.7,3.1,3
		c0.3,12-0.7,23.8-7.2,34.4c-4.6,7.4-11.1,12.3-20.2,12.7c-3.3,0.2-6.6-0.2-9.7-1.7c-2.1-1-3.1-0.4-3.8,1.7
		c-0.6,2.1-1.4,4.1-2.1,6.1c-0.6,2-1.9,3.1-4.1,2.7c-2.2-0.4-2.9-1.9-2.6-4.1c0.2-1.8,1.1-3.5,1.8-5.1c3.6-8.5,8.7-16,14.7-22.8
		c3.5-4,7.1-8,11.6-11.1c0.3-0.2,0.5-0.7,0.7-1c0.2-0.2,0.5-0.6,0.5-0.6C85.1,198.9,84.8,199.2,84.6,199.5z"/>
	<path class="st0" d="M84.6,65.8c-5.8,3.5-10.9,7.8-15.7,12.5c-3.3,3.3-6.3,6.8-9.1,10.5c-1,1.4-1.7,1.8-2.4-0.2
		c-2.9-7.9-2.1-15,3.1-22c6.9-9.4,16.6-12.5,27.2-14.2c5.1-0.8,10.3-1.2,15.5-0.9c1.3,0.1,2.3,0.3,2.4,1.9
		c0.6,12.6-0.4,24.9-7.3,35.8c-4.7,7.3-11.2,12.2-20.4,12.4c-3.3,0.1-6.6-0.4-9.6-1.8c-1.8-0.9-2.6-0.4-3.2,1.4
		c-0.7,2.2-1.6,4.4-2.3,6.6c-0.7,2.1-2,3.1-4.1,2.6c-2.2-0.5-2.9-2-2.6-4.1c0.6-3.2,2.2-6,3.6-8.9c3.4-7,7.9-13.4,13.1-19.2
		c3.5-3.9,7-7.8,11.4-10.9c0.3-0.2,0.5-0.6,0.7-1c0.2-0.2,0.5-0.6,0.5-0.6C85.1,65.2,84.8,65.5,84.6,65.8z"/>
	<path class="st0" d="M237.1,51.4c-5.8-0.2-11.4,0.5-17.1,1.3c-5.3,0.7-10.2,2.3-14.9,4.6c-4.1,1.9-7.4,4.9-10.2,8.4
		c-5.5,7-6.3,14.6-3.4,22.9c0.5,1.5,1.3,1.6,2.2,0.4c1.2-1.5,2.4-3.1,3.6-4.6c6.1-7.1,12.8-13.3,20.8-18.3c0.2-0.1,0.5-0.3,0.7-0.4
		c0.1,0,0.4,0.3,0.4,0.5c0,0.4-0.4,0.3-0.7,0.4c-1.9,1.7-3.8,3.4-5.7,5.1c-4.6,4.3-8.5,9.2-12.2,14.3c-4.4,6-7.9,12.6-10.4,19.7
		c-0.7,2,0.2,4.1,2.1,4.6c2.1,0.7,4.2-0.4,4.6-2.6c0.4-2.5,1.7-4.6,2.4-6.9c0.5-1.8,1.3-1.7,2.8-1.1c8.3,3.2,16.2,2.5,23.4-3.1
		c7.5-5.8,10.9-14,12.9-23c0.8-3.7,0.9-7.5,1.4-11.2c0-2.8,0-5.6,0-8.4C239.9,52.1,238.9,51.5,237.1,51.4z"/>
	<path class="st0" d="M237,185.1c-5.7-0.2-11.2,0.6-16.9,1.3c-10.8,1.5-19.9,5.4-26.4,14.6c-4.6,6.5-4.9,13.5-2.5,20.8
		c0.7,2.2,1.3,2.2,2.7,0.4c1.2-1.5,2.3-3,3.5-4.4c6-7,12.7-13.2,20.6-18c0.2-0.1,0.5-0.3,0.7-0.4c0.1,0,0.4,0.3,0.4,0.5
		c0,0.4-0.4,0.3-0.7,0.4c-1.6,2-3.8,3.3-5.7,5.1c-3.8,3.7-7.2,7.8-10.5,12.1c-5.2,6.7-9.3,13.9-12.1,21.8c-0.8,2.2,0.2,4.2,2.2,4.7
		c2.1,0.6,4.1-0.5,4.4-2.8c0.4-2.3,1.6-4.3,2.3-6.4c0.5-1.8,1.3-2.1,3.1-1.4c8.2,3.2,16,2.4,23.1-3c7.6-5.9,11-14.1,13-23.1
		c0.8-3.7,0.9-7.4,1.3-11.2c0-2.8,0-5.6,0-8.4C239.9,185.7,238.8,185.2,237,185.1z"/>
	<path class="st0" d="M84.6,199.5c0.2-0.3,0.5-0.6,0.9-0.2c0,0-0.3,0.4-0.5,0.6C84.9,199.8,84.7,199.6,84.6,199.5z"/>
	<path class="st0" d="M84.6,65.8c0.2-0.3,0.5-0.6,0.9-0.2c0,0-0.3,0.4-0.5,0.6C84.9,66.1,84.7,65.9,84.6,65.8z"/>
	<path class="st0" d="M218.1,199.7c0.2-0.1,0.5-0.3,0.7-0.4c0.1,0,0.4,0.3,0.4,0.5c0,0.4-0.4,0.3-0.7,0.4
		C218.4,200.1,218.3,199.9,218.1,199.7z"/>
	<path class="st0" d="M218.1,66c0.2-0.1,0.5-0.3,0.7-0.4c0.1,0,0.4,0.3,0.4,0.5c0,0.4-0.4,0.3-0.7,0.4
		C218.4,66.4,218.3,66.2,218.1,66z"/>
</g>
</svg>
